<?xml version="1.0" encoding="utf-8"?>
<!-- Generator: Adobe Illustrator 16.0.0, SVG Export Plug-In . SVG Version: 6.00 Build 0)  -->
<!DOCTYPE svg PUBLIC "-//W3C//DTD SVG 1.1//EN" "http://www.w3.org/Graphics/SVG/1.1/DTD/svg11.dtd">
<svg width="28px" height="28px" version="1.1" id="Ebene_1" xmlns="http://www.w3.org/2000/svg" xmlns:xlink="http://www.w3.org/1999/xlink" x="0px" y="0px"
	 viewBox="0 0 100.031 91.703" enable-background="new 0 0 100.031 91.703"
	 xml:space="preserve">
<path fill="#425563" d="M0,12.639h11.849c0,0,12.64,29.223,14.119,39.589c1.482,10.373-1.68,17.572,5.729,17.572
	c7.405,0,67.531-0.102,67.531-0.102V25.771H29.326c0,0-7.31-25.771-13.724-25.771C9.184,0,0.096,0.101,0.096,0.101L0,12.639z"/>
<path fill="#425563" d="M46.358,78.969h36.541c0,0,1.928-4.627,6.949-5.138c0,0,8.107-1.422,10.159,7.712
	c0,0,0.907,8.487-8.492,9.904c0,0-5.271,0.008-8.105-4.372H45.973c0,0-2.184,4.367-7.333,4.627c0,0-6.69,0.251-9.006-6.555
	c0,0-1.545-5.534,2.579-8.879c0,0,3.986-3.604,8.487-2.057C40.7,74.212,44.04,74.982,46.358,78.969z"/>
</svg>
